<svg version="1.1" xmlns="http://www.w3.org/2000/svg" xmlns:xlink="http://www.w3.org/1999/xlink" width="261" height="261" viewBox="0,0,261,261"><defs><radialGradient cx="240" cy="180" r="130.5" gradientUnits="userSpaceOnUse" id="color-1"><stop offset="0" stop-color="#000000"/><stop offset="1" stop-color="#000000" stop-opacity="0"/></radialGradient></defs><g transform="translate(-109.5,-49.5)"><g data-paper-data="{&quot;isPaintingLayer&quot;:true}" fill-rule="nonzero" stroke-linejoin="miter" stroke-miterlimit="10" stroke-dasharray="" stroke-dashoffset="0" style="mix-blend-mode: normal"><path d="M109.5,180c0,-72.07316 58.42684,-130.5 130.5,-130.5c72.07316,0 130.5,58.42684 130.5,130.5c0,72.07316 -58.42684,130.5 -130.5,130.5c-72.07316,0 -130.5,-58.42684 -130.5,-130.5z" fill="url(#color-1)" stroke="none" stroke-width="NaN" stroke-linecap="butt"/><g fill="none"><path d="M275.28489,100.20003c0,0 28.52162,-3.01414 32.16702,10.42055c2.83306,10.4409 -13.50039,3.85477 -23.58041,14.08299c-10.08001,10.22822 -20.44776,30.59253 -20.44776,30.59253" stroke="#efe6cf" stroke-width="30" stroke-linecap="round"/><path d="M165.16305,211.57444c0,-32.03251 25.96749,-58 58,-58c32.03251,0 58,25.96749 58,58c0,32.03251 -25.96749,58 -58,58c-32.03251,0 -58,-25.96749 -58,-58z" stroke="#d5d9ff" stroke-width="15" stroke-linecap="butt"/><g stroke="#d5d9ff" stroke-width="15" stroke-linecap="butt"><path d="M229.38096,167.32901l10.01085,-14.95937l36.98289,24.74906l-10.01085,14.95937c0,0 -3.91396,4.98854 -20.78955,-6.69287c-19.75711,-13.67602 -16.19334,-18.05618 -16.19334,-18.05618z"/><path d="M276.83723,176.93333c-1.68435,2.51694 -11.33136,-0.98471 -21.5472,-7.82118c-10.21584,-6.83647 -17.13199,-14.41892 -15.44764,-16.93587c1.68435,-2.51694 11.33136,0.98472 21.5472,7.82119c10.21584,6.83647 17.13198,14.41891 15.44763,16.93586z"/></g></g><path d="M223.16305,269.57444c-32.03251,0 -58,-25.96749 -58,-58c0,-32.03251 25.96749,-58 58,-58c32.03251,0 58,25.96749 58,58c0,32.03251 -25.96749,58 -58,58z" data-paper-data="{&quot;index&quot;:null}" fill="#404680" stroke="none" stroke-width="0" stroke-linecap="butt"/><path d="M211.16305,239.57444c-22.09139,0 -40,-17.90861 -40,-40c0,-22.09139 17.90861,-40 40,-40c22.09139,0 40,17.90861 40,40c0,22.09139 -17.90861,40 -40,40z" data-paper-data="{&quot;index&quot;:null}" fill="#7c83c2" stroke="none" stroke-width="0" stroke-linecap="butt"/><path d="M165.16305,211.57444c0,-32.03251 25.96749,-58 58,-58c32.03251,0 58,25.96749 58,58c0,32.03251 -25.96749,58 -58,58c-32.03251,0 -58,-25.96749 -58,-58z" fill="none" stroke="#191b32" stroke-width="5" stroke-linecap="butt"/><path d="M176.16305,190.07444c0,-7.1797 5.8203,-13 13,-13c7.1797,0 13,5.8203 13,13c0,7.1797 -5.8203,13 -13,13c-7.1797,0 -13,-5.8203 -13,-13z" data-paper-data="{&quot;index&quot;:null}" fill="#d5d9ff" stroke="none" stroke-width="0" stroke-linecap="butt"/><g stroke="#191b32" stroke-width="5" stroke-linecap="butt"><path d="M229.38096,167.32901l10.01085,-14.95937l36.98289,24.74906l-10.01085,14.95937c0,0 -3.91396,4.98854 -20.78955,-6.69287c-19.75711,-13.67602 -16.19334,-18.05618 -16.19334,-18.05618z" fill="#404680"/><path d="M276.83723,176.93333c-1.68435,2.51694 -11.33136,-0.98471 -21.5472,-7.82118c-10.21584,-6.83647 -17.13199,-14.41892 -15.44764,-16.93587c1.68435,-2.51694 11.33136,0.98472 21.5472,7.82119c10.21584,6.83647 17.13198,14.41891 15.44763,16.93586z" fill="#7c83c2"/></g><g fill="none" stroke-linecap="round"><g><path d="M275.28489,100.20003c0,0 28.52162,-3.01414 32.16702,10.42055c2.83306,10.4409 -13.50039,3.85477 -23.58041,14.08299c-10.08001,10.22822 -20.44776,30.59253 -20.44776,30.59253" stroke="#5d381d" stroke-width="22.5"/><path d="M275.28489,100.20003c0,0 28.52162,-3.01414 32.16702,10.42055c2.83306,10.4409 -13.50039,3.85477 -23.58041,14.08299c-10.08001,10.22822 -20.44776,30.59253 -20.44776,30.59253" stroke="#ecd08c" stroke-width="12.5"/></g><g stroke="#5d381d" stroke-width="2.5"><path d="M266.14205,134.40956c0,0 4.89168,3.30073 6.34009,5.47802c1.80264,2.70978 3.64741,9.53552 3.64741,9.53552"/><path d="M259.49724,144.09012c0,0 4.89168,3.30072 6.34009,5.47801c1.80264,2.70979 3.64741,9.53552 3.64741,9.53552"/><path d="M280.24572,117.01131c0,0 4.71465,3.54899 6.04866,5.7982c1.66026,2.79929 3.14999,9.7112 3.14999,9.7112"/><path d="M273.10973,126.33568c0,0 4.71465,3.549 6.04866,5.7982c1.66026,2.79929 3.14999,9.7112 3.14999,9.7112"/><path d="M297.13018,110.93923c0,0 5.78354,-1.17214 8.35142,-0.67764c3.19589,0.61544 9.35535,4.08745 9.35535,4.08745"/><path d="M296.39279,111.01346c0,0 1.45085,5.72 1.08128,8.3088c-0.45994,3.22194 -3.62959,9.54232 -3.62959,9.54232"/><path d="M290.33328,107.66391c0,0 2.77855,-5.20605 4.79484,-6.87131c2.5094,-2.07253 9.10845,-4.6115 9.10845,-4.6115"/><path d="M280.71284,108.45184c0,0 -2.10543,-5.51274 -2.03907,-8.12696c0.08259,-3.25356 2.49665,-9.89932 2.49665,-9.89932"/></g></g><g stroke-linecap="butt"><path d="M264.77459,159.82999l-9.19006,12.78534l-1.29065,-12.42578l-7.48823,-2.25174l4.91445,-12.60617l-11.7992,-2.31972l14.04414,-8.03462l-3.64159,-14.73382l14.45115,8.54969l8.55883,-8.11183l1.36218,11.75444l16.25822,-8.29813l-7.78356,16.42086l11.28686,8.43739l-8.80541,8.11836l2.07393,13.05295l-12.90483,-10.22859l-5.324,16.57365z" fill="none" stroke="#ffccb1" stroke-width="15"/><path d="M264.77459,159.82999l-9.19007,12.78534l-1.29064,-12.42578l-7.48823,-2.25174l4.91445,-12.60617l-11.79921,-2.31971l14.04414,-8.03462l-3.64159,-14.73382l14.45115,8.5497l8.55883,-8.11184l1.36218,11.75445l16.25822,-8.29813l-7.78356,16.42086l11.28686,8.43739l-8.80542,8.11836l2.07393,13.05295l-12.90484,-10.22859l-5.324,16.57365z" fill="#e7894e" stroke="#b14400" stroke-width="5"/><path d="M267.02639,150.70661l-3.47371,4.83267l-0.48785,-4.69676l-2.83044,-0.85113l1.85759,-4.76495l-4.45993,-0.87682l5.30848,-3.03697l-1.37647,-5.56917l5.46233,3.23166l3.23511,-3.06616l0.51488,4.44301l6.14537,-3.13657l-2.94207,6.20685l4.26627,3.18921l-3.32832,3.06862l0.78392,4.93383l-4.87784,-3.86626l-2.01239,6.2646z" fill="#ffccb1" stroke="#b14400" stroke-width="0"/></g></g></g></svg>