<svg xmlns="http://www.w3.org/2000/svg" xmlns:xlink="http://www.w3.org/1999/xlink" version="1.1" width="126.72829439487467" height="197.76562502231607" viewBox="0.19070004301066135 3.5237665064811203 126.72829439487467 197.76562502231607">
  <!-- Exported by Scratch - http://scratch.mit.edu/ -->
  <path id="ID0.9672389882616699" fill="#FFD499" stroke="#F0C690" stroke-width="1.3857142627239227" d="M 13.0386 129.7221 C 16.3072 129.7221 19.2693 131.0497 21.4141 133.1945 C 23.5589 135.3393 24.8864 138.3014 24.8864 141.57 C 24.8864 144.8386 23.5589 147.8007 21.4141 149.9455 C 19.2693 152.0903 16.3072 153.4179 13.0386 153.4179 C 9.7699 153.4179 6.8078 152.0903 4.663 149.9455 C 2.5182 147.8007 1.1907 144.8386 1.1907 141.57 C 1.1907 138.3014 2.5182 135.3393 4.663 133.1945 C 6.8078 131.0497 9.7699 129.7221 13.0386 129.7221 Z "/>
  <path id="ID0.9672389882616699" fill="#FFD499" stroke="#F0C690" stroke-width="1.3857142627239227" d="M 107.0886 129.4721 C 110.3572 129.4721 113.3193 130.7997 115.4641 132.9445 C 117.6089 135.0893 118.9364 138.0514 118.9364 141.32 C 118.9364 144.5886 117.6089 147.5507 115.4641 149.6955 C 113.3193 151.8403 110.3572 153.1679 107.0886 153.1679 C 103.8199 153.1679 100.8578 151.8403 98.713 149.6955 C 96.5682 147.5507 95.2407 144.5886 95.2407 141.32 C 95.2407 138.0514 96.5682 135.0893 98.713 132.9445 C 100.8578 130.7997 103.8199 129.4721 107.0886 129.4721 Z "/>
  <path id="ID0.9672389882616699" fill="#00FF55" stroke="#00CC44" stroke-width="1.3857142627239227" d="M 76.2429 181.494 C 81.7985 182.1572 87.7695 183.0219 92.4003 186.247 C 96.137 188.8499 97.9163 193.6941 99.3981 197.9979 C 99.7737 199.092 99.6844 199.6319 97.4997 199.7439 C 88.155 200.2117 78.6842 200.7984 69.6469 199.4944 C 67.3876 199.1685 67.32 197.0373 67.313 195.4955 C 67.2961 191.4401 67.4001 187.2769 69.4944 183.9883 C 70.7391 182.0339 73.8544 181.3737 76.2429 181.494 Z "/>
  <path id="ID0.9672389882616699" fill="#00FF55" stroke="#00CC44" stroke-width="1.3857142627239227" d="M 34.5429 180.744 C 40.0985 181.4072 46.0695 182.2719 50.7003 185.497 C 54.437 188.0999 56.2163 192.9441 57.6981 197.2479 C 58.0737 198.342 57.9844 198.8819 55.7997 198.9939 C 46.455 199.4617 36.9842 200.0484 27.9469 198.7444 C 25.6876 198.4185 25.62 196.2873 25.613 194.7455 C 25.5961 190.6901 25.7001 186.5269 27.7944 183.2383 C 29.0391 181.2839 32.1544 180.6237 34.5429 180.744 Z "/>
  <g id="ID0.07238497259095311">
    <path id="ID0.8481216109357774" fill="#00FF55" stroke="#00CC44" stroke-width="2" stroke-linecap="round" d="M 60.75 75.5 C 69.944 75.777 81.318 76.645 86.5 84 C 93.636 93.717 92.872 107.534 92.5 119.5 C 92.099 132.407 92.371 146.994 84.75 157.5 C 80.043 164.273 69.034 164 60.75 164 C 51.726 164 40.168 164.675 35 157.5 C 27.53 147.133 28.792 132.289 29.25 119.5 C 29.703 106.843 30.746 92.791 38.25 82.5 C 42.715 76.073 52.906 75.263 60.75 75.5 Z "/>
    <path id="ID0.8481216109357774" fill="#00CC44" stroke="#00CC44" stroke-width="2" stroke-linecap="round" d="M 61.75 93.7 C 71.083 93.677 83.683 89.818 89.75 92.45 C 92.808 93.693 84.104 99.456 80 101.45 C 74.188 104.274 67.689 106.583 61.25 106.45 C 53.141 106.071 44.991 103.622 37.75 99.95 C 35.283 98.697 31.641 93.526 34.25 92.95 C 43.078 90.548 52.473 93.721 61.75 93.7 Z "/>
  </g>
  <g id="ID0.2942367820069194">
    <path id="ID0.9672389882616699" fill="#FFD499" stroke="#F0C690" stroke-width="2" d="M 61 17.25 C 72.794 17.25 83.482 22.04 91.221 29.779 C 98.96 37.518 103.75 48.206 103.75 60 C 103.75 71.794 98.96 82.482 91.221 90.221 C 83.482 97.96 72.794 102.75 61 102.75 C 49.206 102.75 38.518 97.96 30.779 90.221 C 23.04 82.482 18.25 71.794 18.25 60 C 18.25 48.206 23.04 37.518 30.779 29.779 C 38.518 22.04 49.206 17.25 61 17.25 Z "/>
    <path id="ID0.9672389882616699" fill="#F0C590" stroke="#F0C690" stroke-width="2" d="M 60.75 28.25 C 70.58 28.12 81.643 24.987 90.221 29.779 C 97.483 33.84 103.083 45.371 102.5 51 C 102.151 54.407 93.112 48.247 88.25 47.5 C 78.667 46.388 68.95 45.504 59.25 45.5 C 50.634 45.5 41.929 46.679 33.5 48 C 28.868 48.736 20.679 55.411 20 52 C 18.821 46.122 22.691 33.999 29.779 29.779 C 38.652 24.5 50.421 28.12 60.75 28.25 Z "/>
    <path id="ID0.23755491245537996" fill="#995900" stroke="#814901" stroke-width="2" stroke-linecap="round" d="M 63.5 16 C 73.7 16.241 83.854 18.958 93.423 22.476 C 100.149 24.948 105.482 29.742 111.25 33.75 C 113.287 35.165 115.605 36.372 116.5 38.5 C 116.985 39.476 115.29 40.604 114.25 40.5 C 110.95 40.168 104.865 37.274 104.75 37.5 C 104.64 37.723 111.021 39.76 113 42.25 C 113.692 43.125 111.88 44.849 110.75 44.75 C 106.896 44.397 99.922 40.322 99.75 40.75 C 99.58 41.184 106.732 44.514 109 47.8 C 109.91 49.116 109.884 52.723 108.25 52.55 C 102.488 51.727 97.743 46.403 92 45.05 C 83.849 43.132 75.344 42.589 67 42.3 C 56.922 41.972 46.714 42.017 36.75 43.55 C 30.744 44.473 22.157 52.383 19.25 49.5 C 16.532 46.633 22.109 37.209 25.5 32.05 C 28.65 27.258 33.224 23.08 38.5 20.75 C 46.301 17.557 54.96 15.8 63.5 16 Z "/>
  </g>
  <path id="ID0.3820050749927759" fill="#FFD499" stroke="none" d="M 59 71.5 C 59 71.5 59 72.004 59 72.819 C 59 73.633 59 74.758 59 76 C 59 77.242 59 78.367 59 79.181 C 59 79.996 59 80.5 59 80.5 C 59 80.5 59 79.996 59 79.181 C 59 78.367 59 77.242 59 76 C 59 74.758 59 73.633 59 72.819 C 59 72.004 59 71.5 59 71.5 Z " stroke-width="1"/>
  <path id="ID0.9369545271620154" fill="#000000" stroke="none" d="M 86.625 54.1625 C 88.384 54.1625 89.978 55.8577 91.132 58.5959 C 92.286 61.333 93 65.1142 93 69.2875 C 93 73.4608 92.286 77.242 91.132 79.9791 C 89.978 82.7173 88.384 84.4125 86.625 84.4125 C 84.866 84.4125 83.272 82.7173 82.118 79.9791 C 80.964 77.242 80.25 73.4608 80.25 69.2875 C 80.25 65.1142 80.964 61.333 82.118 58.5959 C 83.272 55.8577 84.866 54.1625 86.625 54.1625 Z " stroke-width="1.109977498041216"/>
  <path id="ID0.9369545271620154" fill="#000000" stroke="none" d="M 56.625 54.6625 C 58.384 54.6625 59.978 56.3577 61.132 59.0959 C 62.286 61.833 63 65.6142 63 69.7875 C 63 73.9608 62.286 77.742 61.132 80.4791 C 59.978 83.2173 58.384 84.9125 56.625 84.9125 C 54.866 84.9125 53.272 83.2173 52.118 80.4791 C 50.964 77.742 50.25 73.9608 50.25 69.7875 C 50.25 65.6142 50.964 61.833 52.118 59.0959 C 53.272 56.3577 54.866 54.6625 56.625 54.6625 Z " stroke-width="1.109977498041216"/>
  <path id="ID0.9672389882616699" fill="#00FF55" stroke="#00CC43" stroke-width="2.0000000223160797" d="M 53.737 4.7643 C 63.7558 3.8439 73.9364 5.6851 83.7539 8.2428 C 88.129 9.3813 91.2205 13.1313 95.2108 15.5315 C 96.2081 16.1313 96.1086 16.6868 98.2134 16.7601 C 106.6312 17.0489 115.1355 15.1434 123.5046 16.0278 C 125.5972 16.2466 125.0421 17.7004 125.2276 19.01 C 125.7309 22.5364 126.3375 26.0445 125.5142 29.7072 C 125.2515 30.8709 127.4355 30.5815 122.3281 31.3385 C 102.5606 34.1302 82.197 33.6504 62.1793 35.0452 C 52.184 35.7335 42.9201 37.0284 33.2442 37.2273 C 28.1641 37.5478 19.7203 41.2073 17.9559 36.6004 C 15.22 29.4511 18.4461 19.311 24.2505 14.2751 C 31.9463 7.2993 43.5139 5.7051 53.737 4.7643 Z "/>
</svg>