<svg xmlns="http://www.w3.org/2000/svg" xmlns:xlink="http://www.w3.org/1999/xlink" version="1.1" width="119.7457046508789" height="186.30479431152344" viewBox="0.19070005416870117 -0.015398502349853516 119.7457046508789 186.30479431152344">
  <defs>
    <radialGradient id="grad_1" cx="0.47159999999999996" cy="0.44780000000000003" r="0.71786">
      <stop offset="0" stop-color="#99B2FF" stop-opacity="0"/>
      <stop offset="1" stop-color="#99B2FF" stop-opacity="1"/>
    </radialGradient>
    <radialGradient id="grad_2" cx="0.49329999999999996" cy="0.4866" r="0.66742">
      <stop offset="0" stop-color="#FFCCCC" stop-opacity="1"/>
      <stop offset="1" stop-color="#FF0000" stop-opacity="1"/>
    </radialGradient>
    <radialGradient id="grad_3" cx="0.49329999999999996" cy="0.4866" r="0.66742">
      <stop offset="0" stop-color="#FFCCCC" stop-opacity="1"/>
      <stop offset="1" stop-color="#FF0000" stop-opacity="1"/>
    </radialGradient>
    <radialGradient id="grad_4" cx="0.49329999999999996" cy="0.4866" r="0.66742">
      <stop offset="0" stop-color="#FFCCCC" stop-opacity="1"/>
      <stop offset="1" stop-color="#FF0000" stop-opacity="1"/>
    </radialGradient>
  <radialGradient id="grad_1-.30849459767341614,0.4620336890220642,-0.4620336890220642,0.30849459767341614,71.9,-56.85" cx="64.4686" cy="110.809" r="9.652" gradientUnits="userSpaceOnUse">
      <stop offset="0" stop-color="#99B2FF" stop-opacity="0"/>
      <stop offset="1" stop-color="#99B2FF" stop-opacity="1"/>
    </radialGradient><radialGradient id="grad_2-.23868925869464874,0.35748589038848877,-0.35748589038848877,0.23868925869464874,79.3,-12.35" cx="48.1569" cy="126.1319" r="2.1517" gradientUnits="userSpaceOnUse">
      <stop offset="0" stop-color="#FFCCCC" stop-opacity="1"/>
      <stop offset="1" stop-color="#FF0000" stop-opacity="1"/>
    </radialGradient><radialGradient id="grad_3-.23868925869464874,0.35748589038848877,-0.35748589038848877,0.23868925869464874,71.15,-13.85" cx="40.0069" cy="124.6319" r="2.1517" gradientUnits="userSpaceOnUse">
      <stop offset="0" stop-color="#FFCCCC" stop-opacity="1"/>
      <stop offset="1" stop-color="#FF0000" stop-opacity="1"/>
    </radialGradient><radialGradient id="grad_4-.23868925869464874,0.35748589038848877,-0.35748589038848877,0.23868925869464874,69.65,-6.2" cx="38.5069" cy="132.2819" r="2.1517" gradientUnits="userSpaceOnUse">
      <stop offset="0" stop-color="#FFCCCC" stop-opacity="1"/>
      <stop offset="1" stop-color="#FF0000" stop-opacity="1"/>
    </radialGradient></defs>
  <!-- Exported by Scratch - http://scratch.mit.edu/ -->
  <g id="ID0.5886940131895244">
    <path id="ID0.8481216109357774" fill="#0251FF" stroke="#0149E7" stroke-width="2" stroke-linecap="round" d="M 60.75 60.5 C 69.944 60.777 81.318 61.645 86.5 69 C 93.636 78.717 92.872 92.534 92.5 104.5 C 92.099 117.407 92.371 131.994 84.75 142.5 C 80.043 149.273 69.034 149 60.75 149 C 51.726 149 40.168 149.675 35 142.5 C 27.53 132.133 28.792 117.289 29.25 104.5 C 29.703 91.843 30.746 77.791 38.25 67.5 C 42.715 61.073 52.906 60.263 60.75 60.5 Z "/>
    <path id="ID0.8481216109357774" fill="#0048E6" stroke="#0149E7" stroke-width="2" stroke-linecap="round" d="M 61.75 78.75 C 71.083 78.727 83.683 74.868 89.75 77.5 C 92.808 78.743 84.104 84.506 80 86.5 C 74.188 89.324 67.689 91.633 61.25 91.5 C 53.141 91.121 44.991 88.672 37.75 85 C 35.283 83.747 31.641 78.576 34.25 78 C 43.078 75.598 52.473 78.771 61.75 78.75 Z "/>
    <g id="ID0.1671330318786204">
      <path id="ID0.8267885409295559" fill="#FF0000" stroke="#CC0000" stroke-width="0.8596946528693814" stroke-linecap="round" d="M 62.9527 129.547 C 58.9635 122.6001 60.2647 122.9805 57.4266 121.2704 C 56.0039 120.4139 53.4881 122.0275 53.0587 123.6447 C 52.5531 125.3886 55.9258 126.8187 55.3869 128.6025 C 54.6554 131.0213 50.1744 131.7531 49.8827 133.8281 C 49.7009 135.1187 52.7755 135.219 54.3602 135.2841 C 56.2106 135.3593 58.1593 135.2279 59.8019 134.1311 C 61.4446 133.0343 63.2186 131.3795 62.9527 129.547 Z "/>
      <path id="ID0.8267885409295559" fill="#FF0000" stroke="#CC0000" stroke-width="0.8596946528693814" stroke-linecap="round" d="M 45.749 104.4159 C 50.6362 110.7632 50.7835 109.4156 51.2751 112.6924 C 51.5209 114.3347 49.0662 116.0399 47.408 115.8167 C 45.6035 115.6152 45.5754 111.9518 43.7213 111.7659 C 41.2068 111.5143 38.8134 115.3726 36.785 114.8466 C 35.5233 114.5199 36.6091 111.6417 37.1565 110.1531 C 37.7963 108.4151 38.6646 106.6657 40.3073 105.5689 C 41.9499 104.4721 44.1583 103.468 45.749 104.4159 Z "/>
      <path id="ID0.09931510826572776" fill="#E5E5E5" stroke="#B2B2B2" stroke-width="0.8596946528693814" stroke-linecap="round" d="M 82.4944 99.8144 C 84.8652 103.3519 82.7259 108.6645 80.8939 112.5122 C 78.8611 116.5437 75.3106 119.8975 71.4677 122.2948 C 67.686 124.6544 62.7593 126.2993 58.6993 126.0863 C 54.6389 125.8735 51.0969 124.2007 49.039 121.1185 C 46.981 118.0362 46.7937 114.1236 48.1535 110.2918 C 49.513 106.4603 52.8412 102.4802 56.5496 99.9519 C 60.3711 97.3461 65.0049 95.4962 69.5859 95.3826 C 74.1305 95.4483 79.9814 96.0653 82.4944 99.8144 Z "/>
      <path id="ID0.061593024991452694" fill="url(#grad_1-.30849459767341614,0.4620336890220642,-0.4620336890220642,0.30849459767341614,71.9,-56.85)" stroke="#B2B2B2" stroke-width="1.1111148394023374" d="M 69.6281 107.8288 C 70.6709 109.3905 70.9968 111.2183 70.6817 112.9104 C 70.3658 114.6023 69.4092 116.1581 67.8859 117.1752 C 66.3626 118.1924 64.5589 118.4795 62.8751 118.1227 C 61.1915 117.7652 59.6283 116.7635 58.5855 115.2018 C 57.5428 113.6402 57.2169 111.8123 57.532 110.1203 C 57.8479 108.4284 58.8045 106.8725 60.3278 105.8554 C 61.8511 104.8383 63.6548 104.5512 65.3385 104.908 C 67.0222 105.2655 68.5854 106.2671 69.6281 107.8288 Z "/>
      <path id="ID0.07900021318346262" fill="#FF0000" stroke="#CC0000" stroke-width="0.8596946528693814" stroke-linecap="round" d="M 84.2237 99.0426 C 85.8021 101.8409 83.7575 105.552 82.7701 108.593 C 82.1477 110.5095 80.9044 114.9339 79.4117 113.6264 C 74.3404 109.1175 70.3235 102.8072 68.8486 96.2578 C 68.3707 94.1363 73.2189 95.3147 75.3575 95.7108 C 78.4367 96.281 82.6304 96.3288 84.2237 99.0426 Z "/>
      <path id="ID0.8383587412536144" fill="url(#grad_2-.23868925869464874,0.35748589038848877,-0.35748589038848877,0.23868925869464874,79.3,-12.35)" stroke="none" d="M 49.4736 125.2787 C 49.7206 125.6487 49.7941 126.0839 49.7134 126.4887 C 49.6328 126.8935 49.3981 127.2673 49.0281 127.5144 C 48.6581 127.7614 48.2229 127.8349 47.818 127.7543 C 47.4132 127.6736 47.0395 127.4389 46.7924 127.0689 C 46.5454 126.6989 46.4719 126.2637 46.5525 125.8589 C 46.6332 125.4541 46.8679 125.0803 47.2379 124.8332 C 47.6079 124.5862 48.0431 124.5127 48.4479 124.5934 C 48.8527 124.674 49.2265 124.9087 49.4736 125.2787 Z " stroke-width="0.4298473264346907"/>
      <path id="ID0.8383587412536144" fill="url(#grad_3-.23868925869464874,0.35748589038848877,-0.35748589038848877,0.23868925869464874,71.15,-13.85)" stroke="none" d="M 41.3236 123.7787 C 41.5706 124.1487 41.6441 124.5839 41.5634 124.9887 C 41.4828 125.3935 41.2481 125.7673 40.8781 126.0144 C 40.5081 126.2614 40.0729 126.3349 39.668 126.2543 C 39.2632 126.1736 38.8895 125.9389 38.6424 125.5689 C 38.3954 125.1989 38.3219 124.7637 38.4025 124.3589 C 38.4832 123.9541 38.7179 123.5803 39.0879 123.3332 C 39.4579 123.0862 39.8931 123.0127 40.2979 123.0934 C 40.7027 123.174 41.0765 123.4087 41.3236 123.7787 Z " stroke-width="0.4298473264346907"/>
      <path id="ID0.8383587412536144" fill="url(#grad_4-.23868925869464874,0.35748589038848877,-0.35748589038848877,0.23868925869464874,69.65,-6.2)" stroke="none" d="M 39.8236 131.4287 C 40.0706 131.7987 40.1441 132.2339 40.0634 132.6387 C 39.9828 133.0435 39.7481 133.4173 39.3781 133.6644 C 39.0081 133.9114 38.5729 133.9849 38.168 133.9043 C 37.7632 133.8236 37.3895 133.5889 37.1424 133.2189 C 36.8954 132.8489 36.8219 132.4137 36.9025 132.0089 C 36.9832 131.6041 37.2179 131.2303 37.5879 130.9832 C 37.9579 130.7362 38.3931 130.6627 38.7979 130.7434 C 39.2027 130.824 39.5765 131.0587 39.8236 131.4287 Z " stroke-width="0.4298473264346907"/>
    </g>
  </g>
  <path id="ID0.9672389882616699" fill="#FFD499" stroke="#F0C690" stroke-width="1.3857142627239227" d="M 13.0386 114.7221 C 16.3072 114.7221 19.2693 116.0497 21.4141 118.1945 C 23.5589 120.3393 24.8864 123.3014 24.8864 126.57 C 24.8864 129.8386 23.5589 132.8007 21.4141 134.9455 C 19.2693 137.0903 16.3072 138.4179 13.0386 138.4179 C 9.7699 138.4179 6.8078 137.0903 4.663 134.9455 C 2.5182 132.8007 1.1907 129.8386 1.1907 126.57 C 1.1907 123.3014 2.5182 120.3393 4.663 118.1945 C 6.8078 116.0497 9.7699 114.7221 13.0386 114.7221 Z "/>
  <path id="ID0.9672389882616699" fill="#FFD499" stroke="#F0C690" stroke-width="1.3857142627239227" d="M 107.0886 114.4721 C 110.3572 114.4721 113.3193 115.7997 115.4641 117.9445 C 117.6089 120.0893 118.9364 123.0514 118.9364 126.32 C 118.9364 129.5886 117.6089 132.5507 115.4641 134.6955 C 113.3193 136.8403 110.3572 138.1679 107.0886 138.1679 C 103.8199 138.1679 100.8578 136.8403 98.713 134.6955 C 96.5682 132.5507 95.2407 129.5886 95.2407 126.32 C 95.2407 123.0514 96.5682 120.0893 98.713 117.9445 C 100.8578 115.7997 103.8199 114.4721 107.0886 114.4721 Z "/>
  <path id="ID0.9672389882616699" fill="#0251FF" stroke="#0149E7" stroke-width="1.3857142627239227" d="M 76.2429 166.494 C 81.7985 167.1572 87.7695 168.0219 92.4003 171.247 C 96.137 173.8499 97.9163 178.6941 99.3981 182.9979 C 99.7737 184.092 99.6844 184.6319 97.4997 184.7439 C 88.155 185.2117 78.6842 185.7984 69.6469 184.4944 C 67.3876 184.1685 67.32 182.0373 67.313 180.4955 C 67.2961 176.4401 67.4001 172.2769 69.4944 168.9883 C 70.7391 167.0339 73.8544 166.3737 76.2429 166.494 Z "/>
  <path id="ID0.9672389882616699" fill="#0251FF" stroke="#0149E7" stroke-width="1.3857142627239227" d="M 34.5429 165.744 C 40.0985 166.4072 46.0695 167.2719 50.7003 170.497 C 54.437 173.0999 56.2163 177.9441 57.6981 182.2479 C 58.0737 183.342 57.9844 183.8819 55.7997 183.9939 C 46.455 184.4617 36.9842 185.0484 27.9469 183.7444 C 25.6876 183.4185 25.62 181.2873 25.613 179.7455 C 25.5961 175.6901 25.7001 171.5269 27.7944 168.2383 C 29.0391 166.2839 32.1544 165.6237 34.5429 165.744 Z "/>
  <g id="ID0.2942367820069194">
    <path id="ID0.9672389882616699" fill="#FFD499" stroke="#F0C690" stroke-width="2" d="M 61 2.25 C 72.794 2.25 83.482 7.04 91.221 14.779 C 98.96 22.518 103.75 33.206 103.75 45 C 103.75 56.794 98.96 67.482 91.221 75.221 C 83.482 82.96 72.794 87.75 61 87.75 C 49.206 87.75 38.518 82.96 30.779 75.221 C 23.04 67.482 18.25 56.794 18.25 45 C 18.25 33.206 23.04 22.518 30.779 14.779 C 38.518 7.04 49.206 2.25 61 2.25 Z "/>
    <path id="ID0.9672389882616699" fill="#F0C590" stroke="#F0C690" stroke-width="2" d="M 60.75 13.25 C 70.58 13.12 81.643 9.987 90.221 14.779 C 97.483 18.84 103.083 30.371 102.5 36 C 102.151 39.407 93.112 33.247 88.25 32.5 C 78.667 31.388 68.95 30.504 59.25 30.5 C 50.634 30.5 41.929 31.679 33.5 33 C 28.868 33.736 20.679 40.411 20 37 C 18.821 31.122 22.691 18.999 29.779 14.779 C 38.652 9.5 50.421 13.12 60.75 13.25 Z "/>
    <path id="ID0.23755491245537996" fill="#0251FF" stroke="#0048E6" stroke-width="2" stroke-linecap="round" d="M 63.5 1 C 73.7 1.241 84.049 3.471 93.423 7.476 C 101.516 10.934 108.894 16.414 115 22.75 C 116.563 24.392 116.88 29.664 114.75 29.5 C 109.256 28.938 100.626 20.784 99.75 21.3 C 98.874 21.816 106.649 28.431 109 32.8 C 109.661 34.189 109.884 37.723 108.25 37.55 C 102.488 36.727 97.743 31.403 92 30.05 C 83.849 28.132 75.344 27.589 67 27.3 C 56.922 26.972 46.714 27.017 36.75 28.55 C 30.744 29.473 22.157 37.383 19.25 34.5 C 16.532 31.633 22.109 22.209 25.5 17.05 C 28.65 12.258 33.224 8.08 38.5 5.75 C 46.301 2.557 54.96 0.8 63.5 1 Z "/>
  </g>
  <path id="ID0.3820050749927759" fill="#FFD499" stroke="none" d="M 59 56.5 C 59 56.5 59 57.004 59 57.819 C 59 58.633 59 59.758 59 61 C 59 62.242 59 63.367 59 64.181 C 59 64.996 59 65.5 59 65.5 C 59 65.5 59 64.996 59 64.181 C 59 63.367 59 62.242 59 61 C 59 59.758 59 58.633 59 57.819 C 59 57.004 59 56.5 59 56.5 Z " stroke-width="1"/>
  <path id="ID0.9369545271620154" fill="#000000" stroke="none" d="M 86.625 39.1625 C 88.384 39.1625 89.978 40.8577 91.132 43.5959 C 92.286 46.333 93 50.1142 93 54.2875 C 93 58.4608 92.286 62.242 91.132 64.9791 C 89.978 67.7173 88.384 69.4125 86.625 69.4125 C 84.866 69.4125 83.272 67.7173 82.118 64.9791 C 80.964 62.242 80.25 58.4608 80.25 54.2875 C 80.25 50.1142 80.964 46.333 82.118 43.5959 C 83.272 40.8577 84.866 39.1625 86.625 39.1625 Z " stroke-width="1.109977498041216"/>
  <path id="ID0.9369545271620154" fill="#000000" stroke="none" d="M 56.625 39.6625 C 58.384 39.6625 59.978 41.3577 61.132 44.0959 C 62.286 46.833 63 50.6142 63 54.7875 C 63 58.9608 62.286 62.742 61.132 65.4791 C 59.978 68.2173 58.384 69.9125 56.625 69.9125 C 54.866 69.9125 53.272 68.2173 52.118 65.4791 C 50.964 62.742 50.25 58.9608 50.25 54.7875 C 50.25 50.6142 50.964 46.833 52.118 44.0959 C 53.272 41.3577 54.866 39.6625 56.625 39.6625 Z " stroke-width="1.109977498041216"/>
</svg>